<svg width="32" height="32" viewBox="0 0 32 32" fill="none" xmlns="http://www.w3.org/2000/svg">
<g clip-path="url(#clip0_1_37)">
<path d="M26 18.096L16 28L5.99999 18.096C5.3404 17.4542 4.82085 16.6827 4.47406 15.8302C4.12727 14.9777 3.96074 14.0626 3.98498 13.1426C4.00921 12.2226 4.22368 11.3175 4.61487 10.4845C5.00606 9.65142 5.56551 8.90837 6.25798 8.30214C6.95044 7.69591 7.76093 7.23962 8.63841 6.96201C9.51588 6.6844 10.4413 6.59148 11.3565 6.6891C12.2716 6.78672 13.1567 7.07277 13.9558 7.52924C14.755 7.98571 15.451 8.6027 16 9.34137C16.5514 8.60806 17.2482 7.99646 18.0468 7.54484C18.8454 7.09322 19.7287 6.8113 20.6412 6.71673C21.5538 6.62215 22.4761 6.71696 23.3504 6.99522C24.2246 7.27348 25.032 7.7292 25.7221 8.33385C26.4121 8.9385 26.9699 9.67908 27.3606 10.5092C27.7512 11.3394 27.9663 12.2412 27.9924 13.1583C28.0185 14.0754 27.855 14.988 27.5122 15.839C27.1693 16.69 26.6545 17.4611 26 18.104" stroke="#191847" stroke-width="2" stroke-linecap="round" stroke-linejoin="round"/>
</g>
<defs>
<clipPath id="clip0_1_37">
<rect width="32" height="32" fill="white"/>
</clipPath>
</defs>
</svg>
